<svg width="343" height="130" viewBox="0 0 343 130" fill="none" xmlns="http://www.w3.org/2000/svg">
<path d="M273.067 -3.04821C277.337 1.14883 281.485 5.52494 285.902 9.56668C290.901 14.1408 297.902 10.277 303.063 8.4438C312.903 4.94878 316.935 18.2746 325.065 21.3751C331.763 23.9293 337.055 22.495 343.441 19.8763C348.235 17.9105 349.727 18.2128 354.103 20.6364C357.076 22.2829 360.313 25.2408 363.733 25.2111" stroke="#E5C9CA" stroke-width="2" stroke-linecap="round"/>
<path d="M254 -34.2637C260.189 -30.0186 266.378 -25.7736 272.567 -21.5285C277.968 -17.8236 284.225 -21.3767 289.962 -22.2835C295.756 -23.1992 301.735 -20.9133 305.633 -16.1815C308.416 -12.8037 311.418 -9.57714 314.15 -6.16315C317.371 -2.13743 321.875 -0.0510536 325.132 3.71886C327.114 6.01396 330.376 8.11764 333.039 9.56007C336.453 11.4094 338.335 9.70463 341.612 9.12311C351.1 7.43948 358.715 1.37854 367.688 -1.3927C371.417 -2.5443 375.91 -2.63486 379.804 -2.00978C382.533 -1.57175 385.826 -0.0604201 388.528 -0.25471C391.118 -0.440881 393.542 0.93388 396.202 0.779991C397.699 0.693423 399.395 0.425333 400.812 0.652851" stroke="#E5C9CA" stroke-width="2" stroke-linecap="round"/>
<path d="M255.33 183.774C268.102 174.021 280.762 164.101 293.655 154.509C300.224 149.622 307.981 145.878 313.627 139.801C318.501 134.555 321.67 127.118 326.901 122.352C330.763 118.834 333.876 117.505 338.462 120.892C343.874 124.889 348.685 131.41 352.199 137.109C357.995 146.511 358.397 164.97 372.054 166.801" stroke="#E5C9CA" stroke-width="2" stroke-linecap="round"/>
<path d="M257.498 163.858C270.27 154.106 282.894 144.137 295.824 134.594C302.411 129.731 310.485 126.401 315.874 119.988C320.526 114.452 322.967 106.062 328.086 101.149C331.865 97.5228 335.13 96.3929 340.717 101.09C347.309 106.632 353.601 115.092 358.331 122.384C366.135 134.416 369.262 156.443 384.698 160.604" stroke="#E5C9CA" stroke-width="2" stroke-linecap="round"/>
<path d="M-5.38334 -10.2179C-4.83904 -6.49097 -4.15827 -2.75974 -3.74735 0.984086C-3.28232 5.22103 -7.84441 7.33975 -10.6924 9.27896C-16.122 12.976 -10.8548 19.9729 -12.301 25.252C-13.4924 29.601 -16.1866 31.7549 -19.888 34.0238C-22.6667 35.7271 -23.0678 36.5971 -23.463 39.719C-23.7315 41.8398 -23.4323 44.5817 -24.7179 46.307" stroke="#E5C9CA" stroke-width="2" stroke-linecap="round"/>
<path d="M2.33789 -11.3457C2.98367 -6.92386 3.62945 -2.50201 4.27524 1.91984C4.83886 5.77909 1.08333 8.22276 -1.03931 11.0714C-3.18242 13.9476 -3.57873 17.7507 -2.01544 21.0674C-0.899446 23.4351 0.0697714 25.8817 1.22044 28.2313C2.57729 31.0018 2.48354 33.9609 3.68665 36.6844C4.4191 38.3425 4.68444 40.6383 4.74643 42.4417C4.82591 44.7539 3.33894 45.3245 2.09082 46.9352C-1.52276 51.5985 -7.06944 54.1241 -11.1493 58.2296C-12.8448 59.9356 -14.1588 62.3264 -14.9023 64.5802C-15.4233 66.1597 -15.4996 68.3193 -16.3685 69.7211C-17.201 71.0643 -17.1099 72.7217 -17.9443 74.1116C-18.4137 74.8934 -19.0411 75.7353 -19.3117 76.5557" stroke="#E5C9CA" stroke-width="2" stroke-linecap="round"/>
<path d="M-18.7161 90.7562C-14.5568 90.1488 -10.3251 89.7266 -6.20485 88.9016C1.59258 87.3405 5.96847 75.4024 8.65551 69.0226C11.1566 63.0842 15.9878 56.5628 16.4828 50.0885C16.7469 46.6332 16.5382 42.7892 15.5571 39.4397C14.7771 36.7768 12.1119 34.3782 10.6428 32.0283C8.1784 28.0862 5.3822 22.6209 7.03251 17.8027C8.93943 12.2353 14.1271 8.51327 15.9717 2.92138C17.3134 -1.14621 16.527 -5.27035 15.9256 -9.38869C15.5762 -11.7812 15.1612 -13.9655 14.4563 -16.2631C14.243 -16.9585 13.8033 -17.1735 13.6927 -17.9307" stroke="#E5C9CA" stroke-width="2" stroke-linecap="round"/>
<path d="M29.8306 185.564C28.7369 177.458 28.7643 167.3 25.6729 159.767C23.1353 153.584 19.4777 147.044 19.491 140.043C19.4966 137.118 21.7976 134.794 21.9312 132.036C22.6641 116.906 -1.33695 126.518 -7.85407 127.548" stroke="#E5C9CA" stroke-width="2" stroke-linecap="round"/>
<path d="M44.0391 189.792C42.2324 176.402 40.5789 162.976 38.6177 149.612C37.6185 142.803 35.3366 135.983 35.4982 129C35.6377 122.972 37.9166 116.628 37.596 110.679C37.3592 106.287 36.3493 103.655 31.9557 102.997C26.7705 102.22 20.548 103.317 15.4945 104.683C7.15699 106.936 -3.10127 117.819 -11.6972 110.886" stroke="#E5C9CA" stroke-width="2" stroke-linecap="round"/>
</svg>
