<svg width="1296" height="217" viewBox="0 0 1296 217" fill="none" xmlns="http://www.w3.org/2000/svg">
<mask id="mask0_2887_564" style="mask-type:alpha" maskUnits="userSpaceOnUse" x="0" y="0" width="1296" height="217">
<rect x="0.5" y="0.5" width="1295" height="216" rx="4.5" fill="#017D55" stroke="#E5C9CA"/>
</mask>
<g mask="url(#mask0_2887_564)">
<path d="M1081.1 -61.6251C1079.14 -48.1532 1074.37 -32.5332 1075.52 -18.9117C1076.16 -11.3048 1082.22 -4.49089 1087.3 0.809586C1094.89 8.71294 1100.44 16.2727 1102.92 26.9823C1104.13 32.1779 1103.79 39.4804 1110.38 40.4431C1121.25 42.0308 1124.56 11.9026 1125.58 4.95939C1128.03 -11.8378 1129.08 -27.6891 1137.87 -42.4686C1141.44 -48.4579 1146.54 -48.6996 1151.64 -52.5015" stroke="#E5C9CA" stroke-width="4" stroke-linecap="round"/>
<path d="M252.943 -48.7107C247.681 -47.9423 243.443 -43.4364 240.065 -39.6297C233.334 -32.0466 226.306 -24.0864 222.098 -14.7504C216.734 -2.85335 215.557 9.26128 212.566 21.7264C210.212 31.5375 198.918 35.1271 190.053 36.9929C173.76 40.422 166.302 32.6119 155.882 20.8408C147.475 11.3435 142.42 -2.84794 145.94 -15.4104C149.413 -27.8033 157.855 -37.6035 160.551 -50.2726C162.745 -60.5798 159.275 -68.8723 157.881 -78.4217" stroke="#E5C9CA" stroke-width="4" stroke-linecap="round"/>
<path d="M267.278 1.03687C267.088 6.48867 263.204 11.2234 259.912 15.1386C254.776 21.2474 248.846 22.474 242.235 27.0816C236.879 30.8144 229.252 35.4317 223.212 37.9144C218.133 40.1581 208.237 45.6804 193.993 57.6904C187.884 62.841 180.051 68.2488 175.655 75.0964C172.036 80.733 168.99 87.1138 165.175 92.5328C161.044 98.4012 146.504 97.9115 140.439 97.0617C133.399 96.0752 123.523 92.9101 119.056 86.8969C114.683 81.0104 114.698 70.5137 113.808 63.5098C111.593 46.0947 124.701 30.5598 127.237 13.8306C128.075 8.30184 128.096 2.33181 126.204 -3.10273C123.251 -11.5843 115.393 -18.0311 112.371 -27.0034C108.221 -39.3263 107.137 -51.3186 101.212 -63.0768" stroke="#E5C9CA" stroke-width="4" stroke-linecap="round"/>
<path d="M1284.02 -29.0419C1282.71 -20.1288 1281.09 -11.2057 1280.1 -2.25231C1278.99 7.88031 1289.9 12.9472 1296.71 17.5848C1309.7 26.4264 1297.1 43.1594 1300.56 55.7843C1303.41 66.1849 1309.85 71.3359 1318.7 76.7621C1325.35 80.8355 1326.31 82.916 1327.25 90.382C1327.9 95.4538 1327.18 102.011 1330.25 106.137" stroke="#E5C9CA" stroke-width="4" stroke-linecap="round"/>
<path d="M1264.98 -31.7383C1263.43 -21.1635 1261.89 -10.5886 1260.34 -0.0138276C1259 9.21554 1267.98 15.0596 1273.05 21.8721C1278.18 28.7504 1279.13 37.8457 1275.39 45.7775C1272.72 51.4398 1270.4 57.2908 1267.65 62.9097C1264.4 69.5355 1264.63 76.6121 1261.75 83.1255C1260 87.0907 1259.36 92.5812 1259.22 96.894C1259.03 102.424 1262.58 103.788 1265.57 107.64C1274.21 118.792 1287.47 124.832 1297.23 134.651C1301.29 138.73 1304.43 144.448 1306.21 149.838C1307.45 153.615 1307.63 158.78 1309.71 162.132C1311.7 165.345 1311.49 169.308 1313.48 172.632C1314.6 174.502 1316.1 176.515 1316.75 178.477" stroke="#E5C9CA" stroke-width="4" stroke-linecap="round"/>
<path d="M1300.5 179.501V179.501C1282.59 177.221 1265.23 170.362 1250.99 159.763C1249.43 158.602 1247.93 156.494 1246 152.501C1243.1 146.489 1239.08 140.815 1235.32 135.095C1225.81 120.647 1201.85 108.83 1207.5 92.001V92.001C1209.64 85.6329 1210.8 77.6107 1214.83 71.9909C1221.6 62.5634 1229.27 49.4933 1224.74 37.9706C1219.51 24.6562 1205.28 15.7549 1200.22 2.38195C1196.54 -7.34567 1198.69 -17.2085 1200.34 -27.0575C1201.3 -32.7793 1202.44 -38.0029 1204.37 -43.4977C1204.96 -45.1607 1206.16 -45.6747 1206.47 -47.4857" stroke="#E5C9CA" stroke-width="4" stroke-linecap="round"/>
<path d="M1312.06 211.36C1289.58 208.499 1266.3 207.797 1246.92 198.2C1228.92 189.283 1221 188.999 1202.84 161.977C1169.59 112.488 1183.48 99.4761 1189.56 63.1962C1190.76 56.049 1192.07 48.9115 1193.15 41.7499C1194.36 33.7657 1191.33 28.8424 1185 21.999C1171.16 7.03521 1156.33 -16.6478 1151.75 -33.3867C1150.68 -37.3362 1145.57 -41.6599 1145.88 -45.3834C1146.16 -48.6045 1145.51 -51.7159 1146.08 -55.0938" stroke="#E5C9CA" stroke-width="4" stroke-linecap="round"/>
<path d="M1053.25 -64.5151C1050.46 -45.4591 1047.68 -26.403 1044.9 -7.34701C1042.05 12.1708 1039.86 30.9903 1055.94 46.1078C1066.45 55.98 1080.14 62.2222 1089.07 73.8556C1094.03 80.3204 1104.66 88.6154 1113.04 82.7239C1121.83 76.5484 1135.11 68.7435 1136.79 57.2603C1138.64 44.5706 1140.5 31.8808 1142.35 19.191C1143.63 10.3924 1145.53 1.47283 1145.58 -7.43578C1145.64 -16.6479 1145.55 -26.3806 1148.22 -35.3285C1149.28 -38.893 1154 -55.6925 1157.92 -55.1202" stroke="#E5C9CA" stroke-width="4" stroke-linecap="round"/>
<path d="M40.8965 -202.738C42.4409 -192.163 43.9853 -181.589 45.5296 -171.014C46.8775 -161.784 37.8962 -155.94 32.8199 -149.128C27.6947 -142.25 26.7469 -133.154 30.4855 -125.223C33.1544 -119.56 35.4723 -113.709 38.2241 -108.09C41.469 -101.465 41.2448 -94.3879 44.122 -87.8745C45.8737 -83.9093 46.5082 -78.4188 46.6565 -74.106C46.8466 -68.5765 43.2905 -67.212 40.3056 -63.36C31.6638 -52.2077 18.3989 -46.1677 8.64184 -36.3495C4.58724 -32.2695 1.4448 -26.552 -0.333211 -21.1619C-1.57919 -17.3847 -1.76183 -12.2199 -3.83971 -8.8676C-5.83076 -5.65535 -5.61266 -1.69163 -7.60828 1.6322C-8.73087 3.50196 -10.2313 5.51536 -10.8784 7.47724" stroke="#E5C9CA" stroke-width="4" stroke-linecap="round"/>
<path d="M-16.4497 92.0438C-6.50277 90.5911 3.61734 89.5814 13.4708 87.6086C32.1183 83.8751 42.5832 55.3253 49.0093 40.0679C54.9906 25.8663 66.5445 10.2705 67.7281 -5.21273C68.3598 -13.476 67.8607 -22.6691 65.5144 -30.6794C63.6491 -37.0475 57.2751 -42.7839 53.7619 -48.4037C47.8683 -57.8312 41.1812 -70.9013 45.1279 -82.4239C49.6883 -95.7383 62.0945 -104.64 66.5058 -118.013C69.7147 -127.74 67.834 -137.603 66.3956 -147.452C65.56 -153.174 64.5676 -158.397 62.8819 -163.892C62.3717 -165.555 61.3203 -166.069 61.0558 -167.88" stroke="#E5C9CA" stroke-width="4" stroke-linecap="round"/>
<path d="M-8.0519 141.478C10.4274 138.779 29.6605 138.709 45.3257 127.791C59.8794 117.648 71.4981 100.83 80.4046 85.6196C103.657 45.909 102.067 -0.0116651 95.6544 -43.921C94.3911 -52.5713 93.0308 -61.2137 91.8637 -69.8774C90.5625 -79.5362 92.88 -85.3665 97.8541 -93.4003C108.731 -110.967 112.061 -128.025 115.206 -148.038C115.949 -152.76 120.008 -157.799 119.604 -162.295C119.255 -166.185 119.67 -169.912 119.073 -174" stroke="#E5C9CA" stroke-width="4" stroke-linecap="round"/>
<path d="M71.9572 358.836C69.3415 339.45 69.407 315.157 62.0141 297.143C55.9453 282.355 47.1983 266.714 47.2301 249.972C47.2435 242.978 52.7463 237.421 53.0658 230.824C54.8184 194.639 -2.57984 217.627 -18.1655 220.09" stroke="#E5C9CA" stroke-width="4" stroke-linecap="round"/>
<path d="M106.018 362.915C101.697 330.893 97.7428 298.786 93.0527 266.825C90.6631 250.541 85.2059 234.232 85.5923 217.533C85.9259 203.117 91.3761 187.944 90.6091 173.717C90.043 163.215 87.6277 156.919 77.1204 155.345C64.7203 153.487 49.8391 156.111 37.7538 159.377C17.8146 164.766 -6.71798 190.793 -27.275 174.213" stroke="#E5C9CA" stroke-width="4" stroke-linecap="round"/>
</g>
</svg>
